<?xml version="1.0" encoding="iso-8859-1"?>
<!-- Generator: Adobe Illustrator 18.1.1, SVG Export Plug-In . SVG Version: 6.00 Build 0)  -->
<svg version="1.1" id="Capa_1" xmlns="http://www.w3.org/2000/svg" fill="white" xmlns:xlink="http://www.w3.org/1999/xlink" x="0px" y="0px"
	 viewBox="0 0 443.424 443.424" style="enable-background:new 0 0 443.424 443.424;" xml:space="preserve">
<g>
	<path d="M164.766,307.636c-13.767-12.297-31.862-19.844-51.73-19.844c-42.908,0-77.816,34.906-77.816,77.814
		s34.908,77.818,77.816,77.818s77.818-34.91,77.818-77.818c0-1.265-0.13-2.497-0.19-3.748h0.19V199.006l191.262-60.295v100.405
		c-13.766-12.297-31.86-19.845-51.728-19.845c-42.908,0-77.818,34.91-77.818,77.818s34.91,77.814,77.818,77.814
		s77.816-34.906,77.816-77.814c0-1.265-0.13-2.497-0.19-3.748h0.19V103.134l-243.439,76.744V307.636z M330.388,348.814
		c-28.523,0-51.73-23.203-51.73-51.726s23.207-51.73,51.73-51.73s51.728,23.207,51.728,51.73S358.912,348.814,330.388,348.814z
		 M113.036,417.336c-28.523,0-51.728-23.207-51.728-51.73c0-28.523,23.205-51.726,51.728-51.726s51.73,23.203,51.73,51.726
		C164.766,394.129,141.559,417.336,113.036,417.336z"/>
	<path d="M164.766,73.521v92.255l243.439-76.748V0L164.766,73.521z M382.116,69.901l-191.262,60.295V92.894l191.262-57.765V69.901z"
		/>
</g>
<g>
</g>
<g>
</g>
<g>
</g>
<g>
</g>
<g>
</g>
<g>
</g>
<g>
</g>
<g>
</g>
<g>
</g>
<g>
</g>
<g>
</g>
<g>
</g>
<g>
</g>
<g>
</g>
<g>
</g>
</svg>
